<?xml version="1.0" encoding="utf-8"?>
<!-- Generator: Adobe Illustrator 19.0.0, SVG Export Plug-In . SVG Version: 6.00 Build 0)  -->
<svg version="1.1" id="Layer_1" xmlns="http://www.w3.org/2000/svg" xmlns:xlink="http://www.w3.org/1999/xlink" x="0px" y="0px"
	 viewBox="-460 262.6 38 37.4" style="enable-background:new -460 262.6 38 37.4;" xml:space="preserve">
<style type="text/css">
	.st0{fill:#3CB371;}
	.st1{fill:none;stroke:#3CB371;stroke-width:2;stroke-miterlimit:10;}
</style>
<g id="XMLID_118_">
	<path class="st0" d="M-444.8,275.4L-444.8,275.4c0.2-0.1,0.2-0.3,0.2-0.4c-0.3-1.9-0.1-2.8,0-3c0.6-1.7,2.3-2.5,2.7-2.7
		c0.1,0,0.2-0.1,0.4-0.1l0,0h0.3l0,0h0.1c0.1,0,0.1,0,0.2,0h0.1c0.1,0,0.7,0.1,1.8,0.4l0.7,0.2c1.3,0.4,1.9,1.1,2,1.2
		c1,1.2,0.8,3,0.5,3.9c0,0.1,0,0.2,0.1,0.3l0.1,0.1c0.1,0.1,0.1,0.5-0.1,1.3c0,0.3-0.1,0.5-0.3,0.6c-0.1,0.1-0.1,0.1-0.1,0.2
		c-0.4,2.1-2.2,4.4-4.2,4.4c-1.7,0-3.6-2.1-3.9-4.4c0-0.1,0-0.2-0.1-0.2c-0.1-0.1-0.2-0.4-0.3-0.7C-444.9,276-445,275.6-444.8,275.4
		L-444.8,275.4z"/>
	<path class="st0" d="M-448.6,284.3c0.1-0.1,0.5-0.6,1.3-0.9c0.7-0.2,2.5-0.8,3.4-1.5l0.1-0.1c0.1-0.1,0.2-0.2,0.4-0.4l0.1-0.1
		l0.1,0.1c0.9,0.8,1.8,1.2,2.7,1.2s1.8-0.4,2.7-1.1l0.1-0.1l0.2,0.1c0.2,0.1,0.4,0.4,0.6,0.4l0.2,0.1l0,0h0.1
		c0.2,0.1,0.3,0.2,0.5,0.3c0.2,0.1,0.4,0.2,0.6,0.2c0.1,0,0.9,0.3,1.8,0.7l0.2,0.1c0.9,0.3,1.3,0.8,1.3,0.9c1,1.6,1.5,4.5,1.6,6.1
		c-2.7,2.2-6.2,3.4-9.7,3.4s-7-1.2-9.7-3.5C-450,288.8-449.6,285.9-448.6,284.3L-448.6,284.3z"/>
</g>
<circle id="XMLID_125_" class="st1" cx="-440.9" cy="281.3" r="17"/>
</svg>
